<?xml version="1.0" encoding="UTF-8"?><svg id="hexagon_sticker" xmlns="http://www.w3.org/2000/svg" xmlns:xlink="http://www.w3.org/1999/xlink" viewBox="0 0 198 198"><defs><clipPath id="clippath"><path id="sticker_clip_path" d="M177.94,141.09c0,1.8-.96,3.45-2.52,4.34l-73.94,42.15c-1.53,.88-3.42,.88-4.95,0L22.58,145.44c-1.56-.89-2.52-2.55-2.52-4.34V56.91c0-1.8,.96-3.45,2.52-4.34L96.52,10.41c1.53-.88,3.42-.88,4.95,0l73.94,42.15c1.56,.89,2.52,2.55,2.52,4.34v84.19Z" style="fill:none; stroke:#fff; stroke-miterlimit:10;"/></clipPath></defs><g id="hexagon_clip_group"><g style="clip-path:url(#clippath);"><g id="polyamorous_flag"><g id="stripes"><rect id="black_stripe" x="-31" y="99" width="260" height="90" style="fill:#231f20;"/><rect id="red_stripe" x="-31" y="40.67" width="260" height="84.99" style="fill:#ef373e;"/><rect id="blue_stripe" x="-31" y="9" width="260" height="63.34" style="fill:#000f9f;"/></g><path id="pi" d="M123.49,65.19c5.53,.3,10.58-.94,15.2-4.06,2.53-1.71,3.91-.94,4.19,2.11,.4,4.33-.75,8.23-3.29,11.74-1.18,1.63-2.66,2.47-4.78,2.28-3.38-.31-6.78-.47-10.17-.66-4.94-.28-6.14,.51-6.83,5.35-1.47,10.33-2.91,20.67-4.04,31.05-.74,6.81,3.05,9.9,9.84,8.45,1.48-.32,2.91-.91,4.33-1.47,1.64-.65,2.41,0,2.66,1.6,.84,5.29-3.33,12.84-8.26,14.96-5.23,2.25-10.29,.42-13.12-4.84-2.83-5.25-2.91-10.94-2.23-16.65,1.28-10.7,2.72-21.38,4.03-32.08,.17-1.4,.28-3.03-.28-4.22-.51-1.06-1.93-2.23-3.05-2.35-4.13-.43-8.31-.39-12.46-.62-2.42-.14-3.9,.92-4.51,3.2-3.81,14.29-6.99,28.71-7.36,43.57-.1,3.88,.51,7.78,.89,11.65,.33,3.28-.52,4.09-3.69,3.3-.33-.08-.66-.17-.98-.28-7.96-2.66-9.24-4.69-7.05-12.73,3.9-14.32,8.02-28.57,12.06-42.85,1.72-6.06,.87-6.96-5.39-6.77-9.69,.3-15.91,5.02-19,14.09-.19,.56-.32,1.17-.63,1.66-.66,1.04-1.43,2.01-2.15,3.01-.73-1.23-1.91-2.4-2.11-3.71-1.74-11.9,6.07-22.61,18.92-25.22,5.85-1.19,12.14-1.41,18.08-1.36" style="fill:#fd0;"/></g><g id="border"><path id="inner_hexagon_outline" d="M27.95,61.41v75.19c0,1.8,.96,3.45,2.52,4.34l66.05,37.65c1.53,.87,3.42,.87,4.95,0l66.05-37.65c1.56-.89,2.52-2.55,2.52-4.34V61.41c0-1.8-.96-3.45-2.52-4.34L101.48,19.41c-1.53-.87-3.42-.87-4.95,0L30.48,57.06c-1.56,.89-2.52,2.55-2.52,4.34Z" style="fill:none; stroke:#b1b1b1; stroke-miterlimit:10; stroke-width:.25px;"/><path id="white_hexagon_border" d="M175.42,52.56L101.48,10.41c-1.53-.88-3.42-.88-4.95,0L22.58,52.56c-1.56,.89-2.52,2.55-2.52,4.34v84.19c0,1.8,.96,3.45,2.52,4.34l73.94,42.15c1.53,.88,3.42,.88,4.95,0l73.94-42.15c1.56-.89,2.52-2.55,2.52-4.34V56.91c0-1.8-.96-3.45-2.52-4.34Zm-5.37,84.03c0,1.8-.96,3.45-2.52,4.34l-66.05,37.65c-1.53,.88-3.42,.88-4.95,0L30.48,140.94c-1.56-.89-2.52-2.55-2.52-4.34V61.41c0-1.8,.96-3.45,2.52-4.34L96.52,19.41c1.53-.88,3.42-.88,4.95,0l66.05,37.65c1.56,.89,2.52,2.55,2.52,4.34v75.19Z" style="fill:#fff;"/></g></g><path id="sticker_clip_path-2" d="M177.94,141.09c0,1.8-.96,3.45-2.52,4.34l-73.94,42.15c-1.53,.88-3.42,.88-4.95,0L22.58,145.44c-1.56-.89-2.52-2.55-2.52-4.34V56.91c0-1.8,.96-3.45,2.52-4.34L96.52,10.41c1.53-.88,3.42-.88,4.95,0l73.94,42.15c1.56,.89,2.52,2.55,2.52,4.34v84.19Z" style="fill:none; stroke:#fff; stroke-miterlimit:10;"/></g></svg>