<?xml version="1.0" encoding="UTF-8"?><svg id="hexagon_sticker" xmlns="http://www.w3.org/2000/svg" xmlns:xlink="http://www.w3.org/1999/xlink" viewBox="0 0 198 198"><defs><clipPath id="clippath"><path id="sticker_clip_path" d="M177.94,141.09c0,1.8-.96,3.45-2.52,4.34l-73.94,42.15c-1.53,.88-3.42,.88-4.95,0L22.58,145.44c-1.56-.89-2.52-2.55-2.52-4.34V56.91c0-1.8,.96-3.45,2.52-4.34L96.52,10.41c1.53-.88,3.42-.88,4.95,0l73.94,42.15c1.56,.89,2.52,2.55,2.52,4.34v84.19Z" style="fill:none; stroke:#fff; stroke-miterlimit:10;"/></clipPath></defs><g id="hexagon_clip_group"><g style="clip-path:url(#clippath);"><g id="polyamorous_flag__infinity_heart_"><g id="stripes"><rect id="black_stripe" x="-31" y="98.99" width="260" height="90.01" style="fill:#231f20;"/><rect id="red_stripe" x="-31" y="40.67" width="260" height="84.99" style="fill:#ef373e;"/><rect id="blue_stripe" x="-31" y="9" width="260" height="63.34" style="fill:#000f9f;"/></g><path id="infinity_heart" d="M142.83,75.56c-.02,.46-.19,.91,.4,1.25,5.6,3.16,8.9,8.09,10.43,14.2,1.93,7.68,1.11,15.07-3.07,21.91-2.22,3.62-5.32,6.3-9.27,7.94-.18,.08-.35,.18-.53,.28-3.09,1.03-6.27,1.54-9.51,1.17-2.17-.25-4.31-.77-6.46-1.17-.39-.15-.79-.26-1.16-.45-.61-.31-.99-.15-1.22,.46-2.55,3.1-4.97,6.32-7.67,9.29-5.08,5.58-10.33,11.01-15.51,16.5-.07,.08-.17,.14-.07,.06-2.47-2.36-4.96-4.62-7.3-7.02-5.67-5.82-11-11.95-15.96-18.39-.12-.16-.26-.3-.39-.45-.23-.62-.63-.75-1.23-.46-.37,.18-.77,.3-1.16,.44-3.32,.88-6.68,1.56-10.13,1.17-1.97-.22-3.9-.77-5.84-1.17-2.74-1.2-5.23-2.75-7.28-4.96-3.39-3.64-5.32-7.99-6.11-12.84-1.09-6.65-.19-13,3.21-18.89,1.81-3.14,4.28-5.68,7.46-7.46,.64-.36,.85-.76,.69-1.43,.07-3.29,.42-6.54,1.7-9.62,2.75-6.63,7.76-10.25,14.86-10.86,6.09-.52,11.63,1.41,16.89,4.27,3.75,2.03,7.14,4.58,10.33,7.39,1.75-1.37,3.44-2.77,5.2-4.05,4.1-2.98,8.52-5.37,13.44-6.71,4.25-1.16,8.55-1.49,12.81-.14,6.49,2.06,10.2,6.72,11.7,13.19,.49,2.12,.52,4.34,.76,6.52Zm-56.23,45.63c2.36,2.74,4.69,5.51,7.09,8.22,1.7,1.91,3.49,3.75,5.3,5.68,1.77-1.89,3.52-3.68,5.18-5.56,2.43-2.75,4.8-5.56,7.2-8.35l3.69-4.49c-5.95-3.52-11.12-7.75-16.07-12.36-4.95,4.63-10.15,8.87-16.07,12.37,1.27,1.55,2.48,3.01,3.68,4.48Zm15.67-45.64l-3.29,3.16-3.28-3.16c-3.59-3.71-7.62-6.84-12.22-9.2-3.04-1.56-6.21-2.66-9.67-2.79-6.5-.24-9.97,4.25-9.96,10.8,3.19-.18,6.28,.47,9.34,1.24,1.51,.59,3.04,1.12,4.52,1.77,6.42,2.84,12.03,6.93,17.32,11.48,1.33,1.15,2.63,2.33,3.96,3.51,1.02-.92,1.98-1.81,2.96-2.67,4.92-4.32,10.1-8.29,15.99-11.21,2.21-1.1,4.55-1.93,6.83-2.89,3.09-.79,6.2-1.41,9.53-1.24-.21-1.32-.32-2.51-.61-3.66-.88-3.47-2.83-6-6.48-6.86-1.97-.46-3.97-.39-5.93,.06-7.64,1.74-13.6,6.26-19.01,11.65Zm-9.51,22.83c-.11-.12-.17-.22-.25-.29-3.65-3.41-7.49-6.58-11.7-9.29-3.92-2.53-8.03-4.67-12.67-5.56-1.09-.21-2.2-.26-3.45-.4,2.61,10.01,7.53,18.59,13.12,26.83,3.03-1.28,11.38-7.6,14.95-11.3Zm40.48-15.44c-.41,0-.7-.05-.97,0-2.08,.43-4.23,.69-6.23,1.37-5.63,1.92-10.46,5.27-15.04,8.97-1.99,1.6-3.89,3.31-5.91,5.04,4.68,4.37,9.5,8.28,15.02,11.42,5.62-8.32,10.55-16.9,13.13-26.81Zm-63.48,30.13c-5.6-8.46-10.39-17.24-13.24-27.1-.26,.17-.39,.39-.54,.6-.47,.64-1.04,1.23-1.42,1.92-3.52,6.33-3.67,12.81-.32,19.19,3.13,5.96,9.27,7.25,15.53,5.39Zm71.56-27.19c-2.73,9.98-7.56,18.77-13.16,27.24,2.14,.61,4.17,.82,6.23,.67,3.1-.22,5.71-1.47,7.75-3.83,5.04-5.84,5.23-16.65,.41-22.7-.35-.44-.74-.84-1.23-1.39Z" style="fill:#fd0;"/></g><g id="border"><path id="inner_hexagon_outline" d="M27.95,61.41v75.19c0,1.8,.96,3.45,2.52,4.34l66.05,37.65c1.53,.87,3.42,.87,4.95,0l66.05-37.65c1.56-.89,2.52-2.55,2.52-4.34V61.41c0-1.8-.96-3.45-2.52-4.34L101.48,19.41c-1.53-.87-3.42-.87-4.95,0L30.48,57.06c-1.56,.89-2.52,2.55-2.52,4.34Z" style="fill:none; stroke:#b1b1b1; stroke-miterlimit:10; stroke-width:.25px;"/><path id="white_hexagon_border" d="M175.42,52.56L101.48,10.41c-1.53-.88-3.42-.88-4.95,0L22.58,52.56c-1.56,.89-2.52,2.55-2.52,4.34v84.19c0,1.8,.96,3.45,2.52,4.34l73.94,42.15c1.53,.88,3.42,.88,4.95,0l73.94-42.15c1.56-.89,2.52-2.55,2.52-4.34V56.91c0-1.8-.96-3.45-2.52-4.34Zm-5.37,84.03c0,1.8-.96,3.45-2.52,4.34l-66.05,37.65c-1.53,.88-3.42,.88-4.95,0L30.48,140.94c-1.56-.89-2.52-2.55-2.52-4.34V61.41c0-1.8,.96-3.45,2.52-4.34L96.52,19.41c1.53-.88,3.42-.88,4.95,0l66.05,37.65c1.56,.89,2.52,2.55,2.52,4.34v75.19Z" style="fill:#fff;"/></g></g><path id="sticker_clip_path-2" d="M177.94,141.09c0,1.8-.96,3.45-2.52,4.34l-73.94,42.15c-1.53,.88-3.42,.88-4.95,0L22.58,145.44c-1.56-.89-2.52-2.55-2.52-4.34V56.91c0-1.8,.96-3.45,2.52-4.34L96.52,10.41c1.53-.88,3.42-.88,4.95,0l73.94,42.15c1.56,.89,2.52,2.55,2.52,4.34v84.19Z" style="fill:none; stroke:#fff; stroke-miterlimit:10;"/></g></svg>