<?xml version="1.0" encoding="UTF-8"?><svg id="hexagon_sticker" xmlns="http://www.w3.org/2000/svg" xmlns:xlink="http://www.w3.org/1999/xlink" viewBox="0 0 198 198"><defs><clipPath id="clippath"><path id="sticker_clip_path" d="M177.94,141.09c0,1.8-.96,3.45-2.52,4.34l-73.94,42.15c-1.53,.88-3.42,.88-4.95,0L22.58,145.44c-1.56-.89-2.52-2.55-2.52-4.34V56.91c0-1.8,.96-3.45,2.52-4.34L96.52,10.41c1.53-.88,3.42-.88,4.95,0l73.94,42.15c1.56,.89,2.52,2.55,2.52,4.34v84.19Z" style="fill:none; stroke:#fff; stroke-miterlimit:10;"/></clipPath></defs><g id="hexagon_clip_group"><g style="clip-path:url(#clippath);"><g id="puppy_flag"><g id="stripes"><rect id="black_stripe_upper_corner" x="149.14" y="2.24" width="81.92" height="49.87" transform="translate(45.31 -98.97) rotate(32.93)" style="fill:#231f20;"/><rect id="blue_stripe_upper_right" x="95.4" y="28.53" width="136.7" height="37.52" transform="translate(52.01 -81.42) rotate(32.93)" style="fill:#262a82;"/><rect id="black_stripe_upper_right" x="44.97" y="43.44" width="191.53" height="37.47" transform="translate(56.4 -66.51) rotate(32.93)" style="fill:#231f20;"/><rect id="blue_stripe_middle_right" x="-7.2" y="57.78" width="246.28" height="44.15" transform="translate(62.03 -50.19) rotate(32.93)" style="fill:#262a82;"/><rect id="whtie_stripe" x="-44.92" y="76.13" width="284.47" height="50.96" transform="translate(70.87 -36.58) rotate(32.93)" style="fill:#fff;"/><rect id="blue_stripe_middle_left" x="-46.25" y="107.44" width="246.28" height="37.47" transform="translate(80.94 -21.53) rotate(32.93)" style="fill:#262a82;"/><rect id="black_stripe_lower_left" x="-41.85" y="122.32" width="191.53" height="37.47" transform="translate(85.34 -6.65) rotate(32.93)" style="fill:#231f20;"/><rect id="blue_stripe_lower_left" x="-39.14" y="136.68" width="136.7" height="43.69" transform="translate(90.87 9.59) rotate(32.93)" style="fill:#262a82;"/><rect id="black_stripe_lower_corner" x="-33.04" y="152.05" width="81.92" height="37.43" transform="translate(94.1 23.13) rotate(32.93)" style="fill:#231f20;"/></g><path id="bone" d="M51.23,90.18c-.88-2.61-1.01-5.22,.09-7.8,2-4.68,6.74-6.75,12.01-5.26,3.82,1.08,6.93,3.32,9.75,6.01,.76,.72,1.51,.98,2.53,.97,13.81-.03,27.63-.02,41.44-.02,.47,0,.95-.05,1.42-.08,2.78,.03,5.56,.08,8.35,.05,.4,0,.86-.35,1.19-.65,2.58-2.4,5.33-4.52,8.66-5.81,2.27-.88,4.62-1.27,7.01-.7,3.87,.93,6.2,3.48,6.99,7.31,.87,4.18-.57,7.61-3.95,10.16-1.03,.78-2.26,1.31-3.56,2.05,3.16,1.12,5.59,3.09,7.06,6.11,1.18,3.54,.96,6.9-1.36,9.95-2.44,3.21-6.4,4.35-10.75,3.11-3.94-1.12-7.08-3.51-10.04-6.22-.42-.38-1.09-.71-1.64-.71-14.21-.04-28.42-.03-42.63-.03-.27,0-.55,.05-.82,.08-2.78-.03-5.56-.09-8.35-.05-.43,0-.92,.4-1.28,.73-2.58,2.4-5.34,4.53-8.68,5.76-3.35,1.23-6.7,1.47-9.84-.58-5.99-3.9-5.66-12.81,.59-16.72,.87-.54,1.83-.95,2.98-1.55-3.26-1.13-5.67-3.11-7.15-6.13Z" style="fill:#ef373e;"/></g><g id="border"><path id="inner_hexagon_outline" d="M27.95,61.41v75.19c0,1.8,.96,3.45,2.52,4.34l66.05,37.65c1.53,.87,3.42,.87,4.95,0l66.05-37.65c1.56-.89,2.52-2.55,2.52-4.34V61.41c0-1.8-.96-3.45-2.52-4.34L101.48,19.41c-1.53-.87-3.42-.87-4.95,0L30.48,57.06c-1.56,.89-2.52,2.55-2.52,4.34Z" style="fill:none; stroke:#b1b1b1; stroke-miterlimit:10; stroke-width:.25px;"/><path id="white_hexagon_border" d="M175.42,52.56L101.48,10.41c-1.53-.88-3.42-.88-4.95,0L22.58,52.56c-1.56,.89-2.52,2.55-2.52,4.34v84.19c0,1.8,.96,3.45,2.52,4.34l73.94,42.15c1.53,.88,3.42,.88,4.95,0l73.94-42.15c1.56-.89,2.52-2.55,2.52-4.34V56.91c0-1.8-.96-3.45-2.52-4.34Zm-5.37,84.03c0,1.8-.96,3.45-2.52,4.34l-66.05,37.65c-1.53,.88-3.42,.88-4.95,0L30.48,140.94c-1.56-.89-2.52-2.55-2.52-4.34V61.41c0-1.8,.96-3.45,2.52-4.34L96.52,19.41c1.53-.88,3.42-.88,4.95,0l66.05,37.65c1.56,.89,2.52,2.55,2.52,4.34v75.19Z" style="fill:#fff;"/></g></g><path id="sticker_clip_path-2" d="M177.94,141.09c0,1.8-.96,3.45-2.52,4.34l-73.94,42.15c-1.53,.88-3.42,.88-4.95,0L22.58,145.44c-1.56-.89-2.52-2.55-2.52-4.34V56.91c0-1.8,.96-3.45,2.52-4.34L96.52,10.41c1.53-.88,3.42-.88,4.95,0l73.94,42.15c1.56,.89,2.52,2.55,2.52,4.34v84.19Z" style="fill:none; stroke:#fff; stroke-miterlimit:10;"/></g></svg>