<?xml version="1.0" encoding="UTF-8"?><svg id="hexagon_sticker" xmlns="http://www.w3.org/2000/svg" xmlns:xlink="http://www.w3.org/1999/xlink" viewBox="0 0 198 198"><defs><clipPath id="clippath"><path id="sticker_clip_path" d="M177.94,141.09c0,1.8-.96,3.45-2.52,4.34l-73.94,42.15c-1.53,.88-3.42,.88-4.95,0L22.58,145.44c-1.56-.89-2.52-2.55-2.52-4.34V56.91c0-1.8,.96-3.45,2.52-4.34L96.52,10.41c1.53-.88,3.42-.88,4.95,0l73.94,42.15c1.56,.89,2.52,2.55,2.52,4.34v84.19Z" style="fill:none; stroke:#fff; stroke-miterlimit:10;"/></clipPath></defs><g id="hexagon_clip_group"><g style="clip-path:url(#clippath);"><g id="twink_flag"><g id="stripes"><rect id="yellow_stripe" x="-31" y="99" width="260" height="90" style="fill:#f4f090;"/><rect id="white_stripe" x="-31" y="40.67" width="260" height="84.99" style="fill:#fff;"/><rect id="pink_stripe" x="-31" y="9" width="260" height="63.34" style="fill:#ecbad6;"/></g><path id="male_symbols" d="M117.42,80.54c5.77,.06,11.54,.12,17.32,.18,1.07,.01,2.14,0,3.49,0l2.11,2.34v20.64h-4.41v-14.01c-3.91,3.89-7.93,7.91-12.08,12.05,6.12,8.92,7.01,18.81,.18,28.54-5.77,8.22-14.18,11.39-23.9,9.38-11.86-2.45-18.03-10.45-19.35-22.42-12.2-1.51-20.56-7.7-22.69-20.16-1.75-10.21,1.99-18.72,10.92-24.16,9.36-5.7,18.71-4.63,27.39,1.43l12.06-12.14h-14.33v-4.46h20.83l2.29,2.05c0,6.12-.01,11.98,0,17.84,0,.98,.14,1.96,.21,2.94h-5v-14.52l-12.21,12.22c3.26,3.92,4.82,8.79,5.19,13.86,2.72,.64,5.29,.98,7.65,1.87,2.43,.92,4.66,2.37,6.67,3.43,3.98-3.97,7.97-7.95,12.18-12.15h-14.88l.37-4.76Zm-16.85,12.16c.35-10.33-8.77-19.04-19.5-18.79-11.26,.26-19.57,9.38-18.82,20.65,.67,10.13,9.82,18.7,18.87,17.61,2.41-10.44,8.87-16.93,19.45-19.47Zm-15.03,24.16c0,10.68,8.71,18.92,19.6,18.76,10.98-.16,19.21-9.02,18.79-20.21-.38-10.14-9.15-18.69-18.73-18.16-2.49,10.5-8.94,17.12-19.66,19.61Zm14.43-19.14c-6.86,1.41-13.62,8.41-13.64,13.95,6.15-.73,13.07-7.71,13.64-13.95Z" style="fill:#231f20;"/></g><g id="border"><path id="inner_hexagon_outline" d="M27.95,61.41v75.19c0,1.8,.96,3.45,2.52,4.34l66.05,37.65c1.53,.87,3.42,.87,4.95,0l66.05-37.65c1.56-.89,2.52-2.55,2.52-4.34V61.41c0-1.8-.96-3.45-2.52-4.34L101.48,19.41c-1.53-.87-3.42-.87-4.95,0L30.48,57.06c-1.56,.89-2.52,2.55-2.52,4.34Z" style="fill:none; stroke:#b1b1b1; stroke-miterlimit:10; stroke-width:.25px;"/><path id="white_hexagon_border" d="M175.42,52.56L101.48,10.41c-1.53-.88-3.42-.88-4.95,0L22.58,52.56c-1.56,.89-2.52,2.55-2.52,4.34v84.19c0,1.8,.96,3.45,2.52,4.34l73.94,42.15c1.53,.88,3.42,.88,4.95,0l73.94-42.15c1.56-.89,2.52-2.55,2.52-4.34V56.91c0-1.8-.96-3.45-2.52-4.34Zm-5.37,84.03c0,1.8-.96,3.45-2.52,4.34l-66.05,37.65c-1.53,.88-3.42,.88-4.95,0L30.48,140.94c-1.56-.89-2.52-2.55-2.52-4.34V61.41c0-1.8,.96-3.45,2.52-4.34L96.52,19.41c1.53-.88,3.42-.88,4.95,0l66.05,37.65c1.56,.89,2.52,2.55,2.52,4.34v75.19Z" style="fill:#fff;"/></g></g><path id="sticker_clip_path-2" d="M177.94,141.09c0,1.8-.96,3.45-2.52,4.34l-73.94,42.15c-1.53,.88-3.42,.88-4.95,0L22.58,145.44c-1.56-.89-2.52-2.55-2.52-4.34V56.91c0-1.8,.96-3.45,2.52-4.34L96.52,10.41c1.53-.88,3.42-.88,4.95,0l73.94,42.15c1.56,.89,2.52,2.55,2.52,4.34v84.19Z" style="fill:none; stroke:#fff; stroke-miterlimit:10;"/></g></svg>