<?xml version="1.0" encoding="UTF-8"?><svg id="hexagon_sticker" xmlns="http://www.w3.org/2000/svg" xmlns:xlink="http://www.w3.org/1999/xlink" viewBox="0 0 198 198"><defs><clipPath id="clippath"><path id="sticker_clip_path" d="M177.94,141.09c0,1.8-.96,3.45-2.52,4.34l-73.94,42.15c-1.53,.88-3.42,.88-4.95,0L22.58,145.44c-1.56-.89-2.52-2.55-2.52-4.34V56.91c0-1.8,.96-3.45,2.52-4.34L96.52,10.41c1.53-.88,3.42-.88,4.95,0l73.94,42.15c1.56,.89,2.52,2.55,2.52,4.34v84.19Z" style="fill:none; stroke:#fff; stroke-miterlimit:10;"/></clipPath></defs><g id="hexagon_clip_group"><g style="clip-path:url(#clippath);"><g id="bear_flag"><g id="stripes"><rect id="black_stripe" x="-31" y="144.71" width="260" height="44.29" style="fill:#231f20;"/><rect id="grey_stripe" x="-31" y="121.86" width="260" height="34.29" style="fill:#5f6369;"/><rect id="white_stripe" x="-31" y="99" width="260" height="34.29" style="fill:#fff;"/><rect id="tan_stripe" x="-31" y="76.14" width="260" height="34.29" style="fill:#fdf3cb;"/><rect id="golden_yellow_stripe" x="-31" y="53.29" width="260" height="34.29" style="fill:#ffea79;"/><rect id="orange_stripe" x="-31" y="25.43" width="260" height="39.29" style="fill:#f47721;"/><rect id="dark_brown_stripe" x="-31" y="9" width="260" height="32.86" style="fill:#6a4005;"/></g><g id="bear_paw"><path id="toe_5" d="M136.64,64.07c.08,.1,.17,.2,.25,.3,1.74,2.52,3.29,5.14,2.96,8.35-.65,6.21-6.94,10.43-13.13,8.87-4.86-1.22-8.22-4.47-11.13-8.3-2.07-2.73-3.63-5.74-4.78-8.96-.17-.06-.23-.18-.17-.35-.33-1.41-.6-2.81-.6-4.28,.01-3.68,1.24-5,4.9-5.18,7.67-.36,14.1,2.49,19.67,7.58,.7,.64,1.36,1.31,2.03,1.97Z" style="fill:#010101;"/><path id="toe_4" d="M103.27,64.29c-2.38,2.76-5.28,4.62-8.96,5.08-2.46,.31-4.42-.61-5.91-2.59-.68-.9-1.26-1.89-2.28-2.48-.17-.13-.45-.09-.53-.35-2.46-1.73-5.41-1.93-8.2-2.62-2.05-.5-3.97-1.14-5.12-3.17-1.23-2.17-1.13-3.82,.56-5.68,2.32-2.54,5.4-3.59,8.6-4.42,4.69-1.22,9.39-1.66,14.15-.33,7.26,2.02,10.83,9.31,7.91,16.24,.05,.19-.02,.3-.22,.32Z" style="fill:#010101;"/><path id="toe_3" d="M50.97,64.28c.02-.08,.02-.15,0-.23-.08-4.32,1.85-5.8,6.48-4.87,4.61,.92,8.86,2.76,12.86,5.2h.25c7.34,4.73,6.05,12.8,3.05,17.92-1.28,2.19-3.87,3.06-6.46,2.39-2.32-.6-4.28-1.87-6.02-3.47-5.06-4.64-8.71-10.12-10.15-16.93Z" style="fill:#010101;"/><path id="toe_2" d="M68.3,96.66c1.83,1.63,3.86,3.03,5.42,4.95,.67,.83,1.35,1.67,1.94,2.56,2.43,3.73,2.63,6.8,.65,9.46-2.71,3.64-6.53,5.18-10.62,3.61-8.24-3.15-13.19-9.36-15.43-17.79-.23-.87,.02-1.87,.05-2.82,1.88-3.49,4.47-4.69,8.39-4.04,3.54,.59,6.56,2.35,9.61,4.06Z" style="fill:#010101;"/><path id="toe_1" d="M54.52,129.17c-1.35-3.51-.53-5.45,3.22-6.29,8.06-1.81,14.94,.36,20.43,6.63,2.06,3.39,2.43,6.98,1.08,10.68-1.56,4.28-5.9,5.96-9.4,3.14-5.4-4.37-11.19-8.4-15.34-14.16Z" style="fill:#010101;"/><path id="palm" d="M83.79,129.26c.55-5.85,1.3-11.66,2.95-17.32,.63-2.15-.17-3.98-1.55-5.59-1.53-1.79-3.46-3.13-5.3-4.57-1.85-1.45-3.56-3.03-4.53-5.24-4.79-14.33,7.69-24.85,18.81-25.57,4.06-.26,7.62,.99,10.8,3.7,6.78,5.77,14.68,9,23.61,9.53,3.24,.19,6.17-1.09,9.09-2.3,3.6-1.49,7.11-3.24,11.09-3.67,4.45-.48,10.83,4.43,11.38,8.9,.27,2.21-.59,4.11-1.88,5.79-1,1.29-2.17,2.45-3.26,3.67-8.62,7.25-18.48,12.64-27.99,18.55-5.99,3.72-10.93,8.44-15.08,14.06-4.12,4.36-7.99,8.95-11.87,13.51-.86,1.01-1.7,2.05-2.69,2.93-2.81,2.48-5.9,2.46-8.67-.09-2.98-2.74-4.38-6.29-4.75-10.23-.19-2.01-.11-4.04-.15-6.06Z" style="fill:#010101;"/></g></g><g id="border"><path id="inner_hexagon_outline" d="M27.95,61.41v75.19c0,1.8,.96,3.45,2.52,4.34l66.05,37.65c1.53,.87,3.42,.87,4.95,0l66.05-37.65c1.56-.89,2.52-2.55,2.52-4.34V61.41c0-1.8-.96-3.45-2.52-4.34L101.48,19.41c-1.53-.87-3.42-.87-4.95,0L30.48,57.06c-1.56,.89-2.52,2.55-2.52,4.34Z" style="fill:none; stroke:#b1b1b1; stroke-miterlimit:10; stroke-width:.25px;"/><path id="white_hexagon_border" d="M175.42,52.56L101.48,10.41c-1.53-.88-3.42-.88-4.95,0L22.58,52.56c-1.56,.89-2.52,2.55-2.52,4.34v84.19c0,1.8,.96,3.45,2.52,4.34l73.94,42.15c1.53,.88,3.42,.88,4.95,0l73.94-42.15c1.56-.89,2.52-2.55,2.52-4.34V56.91c0-1.8-.96-3.45-2.52-4.34Zm-5.37,84.03c0,1.8-.96,3.45-2.52,4.34l-66.05,37.65c-1.53,.88-3.42,.88-4.95,0L30.48,140.94c-1.56-.89-2.52-2.55-2.52-4.34V61.41c0-1.8,.96-3.45,2.52-4.34L96.52,19.41c1.53-.88,3.42-.88,4.95,0l66.05,37.65c1.56,.89,2.52,2.55,2.52,4.34v75.19Z" style="fill:#fff;"/></g></g><path id="sticker_clip_path-2" d="M177.94,141.09c0,1.8-.96,3.45-2.52,4.34l-73.94,42.15c-1.53,.88-3.42,.88-4.95,0L22.58,145.44c-1.56-.89-2.52-2.55-2.52-4.34V56.91c0-1.8,.96-3.45,2.52-4.34L96.52,10.41c1.53-.88,3.42-.88,4.95,0l73.94,42.15c1.56,.89,2.52,2.55,2.52,4.34v84.19Z" style="fill:none; stroke:#fff; stroke-miterlimit:10;"/></g></svg>