<?xml version="1.0" encoding="UTF-8"?><svg id="hexagon_sticker" xmlns="http://www.w3.org/2000/svg" xmlns:xlink="http://www.w3.org/1999/xlink" viewBox="0 0 198 198"><defs><clipPath id="clippath"><path id="sticker_clip_path" d="M177.94,141.09c0,1.8-.96,3.45-2.52,4.34l-73.94,42.15c-1.53,.88-3.42,.88-4.95,0L22.58,145.44c-1.56-.89-2.52-2.55-2.52-4.34V56.91c0-1.8,.96-3.45,2.52-4.34L96.52,10.41c1.53-.88,3.42-.88,4.95,0l73.94,42.15c1.56,.89,2.52,2.55,2.52,4.34v84.19Z" style="fill:none; stroke:#fff; stroke-miterlimit:10;"/></clipPath></defs><g id="hexagon_clip_group"><g style="clip-path:url(#clippath);"><g id="new_pride_flag"><g id="rainbow_stripes"><rect id="violet_stripe" x="-31" y="139" width="260" height="50" style="fill:#542e8e;"/><rect id="indigo_stripe" x="-31" y="112.33" width="260" height="40" style="fill:#263287;"/><rect id="green_stripe" x="-31" y="85.67" width="260" height="40" style="fill:#00853e;"/><rect id="yellow_stripe" x="-31" y="59" width="260" height="40" style="fill:#fff21f;"/><rect id="orange_stripe" x="-31" y="27.33" width="260" height="45" style="fill:#f58021;"/><rect id="red_stripe" x="-31" y="9" width="260" height="36.67" style="fill:#d92632;"/></g><g id="qtpoc_stripes"><rect id="black_stripe" x="7.81" y="86.75" width="180" height="24.49" transform="translate(-1.19 196.82) rotate(-90)" style="fill:#231f20;"/><rect id="brown_stripe" x="-8.51" y="86.75" width="180" height="24.49" transform="translate(-17.51 180.49) rotate(-90)" style="fill:#935f22;"/><rect id="blue_stripe" x="-24.84" y="86.75" width="180" height="24.49" transform="translate(-33.84 164.16) rotate(-90)" style="fill:#00bcda;"/><rect id="pink_stripe" x="-43.26" y="84.66" width="180" height="28.67" transform="translate(-52.26 145.74) rotate(-90)" style="fill:#f6a0b3;"/><rect id="white_stripe" x="-57.59" y="86.65" width="180" height="24.69" transform="translate(-66.59 131.41) rotate(-90)" style="fill:#fff;"/></g></g><g id="border"><path id="inner_hexagon_outline" d="M27.95,61.41v75.19c0,1.8,.96,3.45,2.52,4.34l66.05,37.65c1.53,.87,3.42,.87,4.95,0l66.05-37.65c1.56-.89,2.52-2.55,2.52-4.34V61.41c0-1.8-.96-3.45-2.52-4.34L101.48,19.41c-1.53-.87-3.42-.87-4.95,0L30.48,57.06c-1.56,.89-2.52,2.55-2.52,4.34Z" style="fill:none; stroke:#b1b1b1; stroke-miterlimit:10; stroke-width:.25px;"/><path id="white_hexagon_border" d="M175.42,52.56L101.48,10.41c-1.53-.88-3.42-.88-4.95,0L22.58,52.56c-1.56,.89-2.52,2.55-2.52,4.34v84.19c0,1.8,.96,3.45,2.52,4.34l73.94,42.15c1.53,.88,3.42,.88,4.95,0l73.94-42.15c1.56-.89,2.52-2.55,2.52-4.34V56.91c0-1.8-.96-3.45-2.52-4.34Zm-5.37,84.03c0,1.8-.96,3.45-2.52,4.34l-66.05,37.65c-1.53,.88-3.42,.88-4.95,0L30.48,140.94c-1.56-.89-2.52-2.55-2.52-4.34V61.41c0-1.8,.96-3.45,2.52-4.34L96.52,19.41c1.53-.88,3.42-.88,4.95,0l66.05,37.65c1.56,.89,2.52,2.55,2.52,4.34v75.19Z" style="fill:#fff;"/></g></g><path id="sticker_clip_path-2" d="M177.94,141.09c0,1.8-.96,3.45-2.52,4.34l-73.94,42.15c-1.53,.88-3.42,.88-4.95,0L22.58,145.44c-1.56-.89-2.52-2.55-2.52-4.34V56.91c0-1.8,.96-3.45,2.52-4.34L96.52,10.41c1.53-.88,3.42-.88,4.95,0l73.94,42.15c1.56,.89,2.52,2.55,2.52,4.34v84.19Z" style="fill:none; stroke:#fff; stroke-miterlimit:10;"/></g></svg>