<?xml version="1.0" encoding="UTF-8"?><svg id="hexagon_sticker" xmlns="http://www.w3.org/2000/svg" xmlns:xlink="http://www.w3.org/1999/xlink" viewBox="0 0 198 198"><defs><clipPath id="clippath"><path id="sticker_clip_path" d="M177.94,141.09c0,1.8-.96,3.45-2.52,4.34l-73.94,42.15c-1.53,.88-3.42,.88-4.95,0L22.58,145.44c-1.56-.89-2.52-2.55-2.52-4.34V56.91c0-1.8,.96-3.45,2.52-4.34L96.52,10.41c1.53-.88,3.42-.88,4.95,0l73.94,42.15c1.56,.89,2.52,2.55,2.52,4.34v84.19Z" style="fill:none; stroke:#fff; stroke-miterlimit:10;"/></clipPath></defs><g id="hexagon_clip_group"><g style="clip-path:url(#clippath);"><g id="ally_flag"><g id="stripes"><rect id="white_stripe_3" x="-18" y="135" width="234" height="45" style="fill:#fff;"/><rect id="black_stripe_3" x="-18" y="111" width="234" height="36" style="fill:#231f20;"/><rect id="white_stripe_2" x="-18" y="87" width="234" height="36" style="fill:#fff;"/><rect id="black_stripe_2" x="-18" y="63" width="234" height="36" style="fill:#231f20;"/><rect id="white_stripe_1" x="-18" y="34.5" width="234" height="40.5" style="fill:#fff;"/><rect id="black_stripe_1" x="-18" y="18" width="234" height="33" style="fill:#231f20;"/></g><g id="raindow_a"><polygon id="violet_stripe_right" points="126.13 135.17 159.85 180 213.85 180 180.13 135.17 126.13 135.17" style="fill:#542e8e;"/><polygon id="violet_stripe_left" points="-15.69 180 38.31 180 71.26 135.99 17.26 135.99 -15.69 180" style="fill:#542e8e;"/><polygon id="indigo_stripe_right" points="162.31 111.42 108.31 111.42 135 147 189 147 162.31 111.42" style="fill:#263287;"/><polygon id="indigo_stripe_left" points="9 147 63 147 89.21 112.05 35.21 112.05 9 147" style="fill:#263287;"/><polygon id="green_stripe_right" points="144.22 87.29 90.22 87.29 117 123 171 123 144.22 87.29" style="fill:#00853e;"/><polygon id="green_stripe_left" points="27 123 81 123 107.76 87.32 53.76 87.32 27 123" style="fill:#00853e;"/><polygon id="yellow_stripe" points="128.52 66.36 69.48 66.36 45 99 99 99 153 99 128.52 66.36" style="fill:#fff21f;"/><polygon id="orange_stripe" points="111.78 44.04 86.22 44.04 63 75 135 75 111.78 44.04" style="fill:#f58021;"/><polygon id="red_stripe" points="99 27 81 51 117 51 99 27" style="fill:#d92632;"/></g></g><g id="border"><path id="inner_hexagon_outline" d="M27.95,61.41v75.19c0,1.8,.96,3.45,2.52,4.34l66.05,37.65c1.53,.87,3.42,.87,4.95,0l66.05-37.65c1.56-.89,2.52-2.55,2.52-4.34V61.41c0-1.8-.96-3.45-2.52-4.34L101.48,19.41c-1.53-.87-3.42-.87-4.95,0L30.48,57.06c-1.56,.89-2.52,2.55-2.52,4.34Z" style="fill:none; stroke:#b1b1b1; stroke-miterlimit:10; stroke-width:.25px;"/><path id="white_hexagon_border" d="M175.42,52.56L101.48,10.41c-1.53-.88-3.42-.88-4.95,0L22.58,52.56c-1.56,.89-2.52,2.55-2.52,4.34v84.19c0,1.8,.96,3.45,2.52,4.34l73.94,42.15c1.53,.88,3.42,.88,4.95,0l73.94-42.15c1.56-.89,2.52-2.55,2.52-4.34V56.91c0-1.8-.96-3.45-2.52-4.34Zm-5.37,84.03c0,1.8-.96,3.45-2.52,4.34l-66.05,37.65c-1.53,.88-3.42,.88-4.95,0L30.48,140.94c-1.56-.89-2.52-2.55-2.52-4.34V61.41c0-1.8,.96-3.45,2.52-4.34L96.52,19.41c1.53-.88,3.42-.88,4.95,0l66.05,37.65c1.56,.89,2.52,2.55,2.52,4.34v75.19Z" style="fill:#fff;"/></g></g><path id="sticker_clip_path-2" d="M177.94,141.09c0,1.8-.96,3.45-2.52,4.34l-73.94,42.15c-1.53,.88-3.42,.88-4.95,0L22.58,145.44c-1.56-.89-2.52-2.55-2.52-4.34V56.91c0-1.8,.96-3.45,2.52-4.34L96.52,10.41c1.53-.88,3.42-.88,4.95,0l73.94,42.15c1.56,.89,2.52,2.55,2.52,4.34v84.19Z" style="fill:none; stroke:#fff; stroke-miterlimit:10;"/></g></svg>