<?xml version="1.0" encoding="UTF-8"?>
<svg id="hexagon_sticker" data-name="hexagon sticker" xmlns="http://www.w3.org/2000/svg" xmlns:xlink="http://www.w3.org/1999/xlink" viewBox="0 0 198 198">
  <defs>
    <style>
      .cls-1 {
        fill: #fff;
      }

      .cls-2 {
        fill: #f58249;
      }

      .cls-3 {
        fill: #e53446;
      }

      .cls-4 {
        stroke: #fff;
      }

      .cls-4, .cls-5, .cls-6 {
        fill: none;
        stroke-miterlimit: 10;
      }

      .cls-5 {
        stroke: #2e3192;
        stroke-width: .5px;
      }

      .cls-6 {
        stroke: #b1b1b1;
        stroke-width: .25px;
      }

      .cls-7 {
        fill: #26ac74;
      }

      .cls-8 {
        fill: #f8fcfa;
      }

      .cls-9 {
        clip-path: url(#clippath);
      }

      .cls-10 {
        fill: #9acd71;
      }

      .cls-11 {
        fill: #fac759;
      }
    </style>
    <clipPath id="clippath">
      <path id="sticker_clip_path" data-name="sticker clip path" class="cls-4" d="m177.94,141.09c0,1.8-.96,3.45-2.52,4.34l-73.94,42.15c-1.53.88-3.42.88-4.95,0l-73.94-42.15c-1.56-.89-2.52-2.55-2.52-4.34V56.91c0-1.8.96-3.45,2.52-4.34L96.52,10.41c1.53-.88,3.42-.88,4.95,0l73.94,42.15c1.56.89,2.52,2.55,2.52,4.34v84.19Z"/>
    </clipPath>
  </defs>
  <g id="hexagon_clip_group" data-name="hexagon clip group">
    <g class="cls-9">
      <g id="stripes">
        <path id="green" class="cls-7" d="m-18,165.46v-14.54h234v29.09H-18v-14.54Z"/>
        <path id="light_green" data-name="light green" class="cls-10" d="m-18,140.62v-10.3h234v20.59H-18v-10.3Z"/>
        <path id="gold" class="cls-11" d="m-18,99.15v-31.18h234v62.35H-18v-31.18Z"/>
        <path id="orange" class="cls-2" d="m-18,57.77v-10.2h234v20.4H-18v-10.2Z"/>
        <path id="red" class="cls-3" d="m-18,32.79v-14.79h234v29.57H-18v-14.79Z"/>
      </g>
      <path id="infinity" class="cls-8" d="m60.89,123.79l-1.2-.22-1.39-.36-1.39-.36-1.57-.61-1.57-.61-1.38-.76-1.38-.76-1.05-.75-1.05-.75-1.57-1.48-1.57-1.48-.92-1.23-.92-1.23-.88-1.54-.88-1.54-.76-2.14-.76-2.14-.31-1.45-.31-1.45v-3.85s.02-3.85.02-3.85l.44-1.64.44-1.64.45-1.18.45-1.18.35-.77.35-.77.77-1.28.77-1.28,1.24-1.54,1.24-1.54,1.21-1.1,1.21-1.1,1.3-.96,1.3-.96,1.68-.89,1.68-.89,1.5-.6,1.5-.6,2.39-.6,2.39-.6,2.91-.1,2.91-.1,1.58.2,1.58.2,1.84.44,1.84.44,1.62.6,1.62.6,1.97,1,1.97,1,1.71,1.14,1.71,1.14,1.28.95,1.28.95,2.13,1.8,2.13,1.8,2.48,2.3,2.48,2.3.05.13.05.13.57.44.57.44.66-.65.66-.65,2.55-2.35,2.55-2.35,1.89-1.58,1.89-1.58.77-.55.77-.55,2.3-1.54,2.3-1.54,2.14-1.09,2.14-1.09.77-.26.77-.26.6-.25.6-.25,2.01-.52,2.01-.52,1.37-.2,1.37-.2,3.71.09,3.71.09,2.39.61,2.39.61,1.45.58,1.45.58,1.2.61,1.2.61,1.23.83,1.23.83,1.11.98,1.11.98,1.04,1.28,1.04,1.28.66,1.09.66,1.09.6,1.17.6,1.17.69,2.07.69,2.07.29,1.27.29,1.27v3.85s.02,3.85.02,3.85l-.4,1.53-.4,1.53-.69,1.77-.69,1.77-1.05,1.74-1.05,1.74-.6.76-.6.76-1.8,1.79-1.8,1.79-1,.68-1,.68-1,.63-1,.63-1,.51-1,.51-1.35.54-1.35.54-1.92.49-1.92.49-1.48.2-1.48.2-3.18-.08-3.18-.08-2.29-.55-2.29-.55-1.81-.68-1.81-.68-1.76-.93-1.76-.93-1.49-.97-1.49-.97-1.59-1.21-1.59-1.21-.65-.51-.65-.51-1-.85-1-.85-.85-.79-.85-.79-2.52-2.35-2.52-2.35-.16.06-.16.06-2.79,2.57-2.79,2.57-1.37,1.19-1.37,1.19-.85.7-.85.7-.85.65-.85.65-2.14,1.44-2.14,1.44-2.22,1.09-2.22,1.09-1.45.53-1.45.53-2.05.5-2.05.5-1.2.17-1.2.17h-3.42s-3.42-.02-3.42-.02l-1.2-.22h0Zm10.06-10.6l1.86-.46,1.3-.52,1.3-.52.94-.48.94-.48.94-.57.94-.57.54-.38.54-.38h.24l.57-.47.57-.47.89-.68.89-.68,1.13-.95,1.13-.95.81-.76.81-.76,1.94-1.79,1.94-1.79.18-.27.18-.27-2.41-2.21-2.41-2.21-1.55-1.37-1.55-1.37-.94-.78-.94-.78-1.28-.95-1.28-.95-1.71-.99-1.71-.99-1.41-.57-1.41-.57-1.32-.34-1.32-.34-1.53-.19-1.53-.19-1.12.11-1.12.11-1.54.34-1.54.34-1.37.61-1.37.61-.68.44-.68.44-.85.66-.85.66-.97,1.08-.97,1.08-.78,1.39-.78,1.39-.27.79-.27.79-.26,1.21-.26,1.21v1.62s0,1.62,0,1.62l.44,1.93.44,1.93.8,1.51.8,1.51.95,1.09.95,1.09,1.02.82,1.02.82,1.32.67,1.32.67,1.69.43,1.69.43.51.08.51.08,2.05-.05,2.05-.05,1.86-.46h0Zm63.98.02l1.76-.46,1.15-.56,1.15-.56,1.11-.75,1.11-.75,1.17-1.21,1.17-1.21.72-1.2.72-1.2.32-.68.32-.68.33-1.2.33-1.2.09-2.05.09-2.05-.36-1.79-.36-1.79-.88-1.75-.88-1.75-1.09-1.2-1.09-1.2-1.09-.78-1.09-.78-1.22-.6-1.22-.6-1.73-.4-1.73-.4-1.21-.11-1.21-.11-1.49.19-1.49.19-1.48.35-1.48.35-1.11.43-1.11.43-1.54.78-1.54.78-1.69,1.13-1.69,1.13-.37.26-.37.26-.84.68-.84.68-1.37,1.19-1.37,1.19-1.2,1.11-1.2,1.11-1.32,1.26-1.32,1.26.19.28.19.28.79.66.79.66,1.97,1.83,1.97,1.83,1.79,1.52,1.79,1.52.68.52.68.52,1.71,1.12,1.71,1.12,1.03.53,1.03.53,1,.44,1,.44,1.73.42,1.73.42.43.08.43.08,2.05-.05,2.05-.05,1.76-.46Z"/>
      <g id="border">
        <path id="inner_hexagon_outline" data-name="inner hexagon outline" class="cls-6" d="m27.95,61.41v75.19c0,1.8.96,3.45,2.52,4.34l66.05,37.65c1.53.87,3.42.87,4.95,0l66.05-37.65c1.56-.89,2.52-2.55,2.52-4.34V61.41c0-1.8-.96-3.45-2.52-4.34L101.48,19.41c-1.53-.87-3.42-.87-4.95,0L30.48,57.06c-1.56.89-2.52,2.55-2.52,4.34Z"/>
        <path id="white_hexagon_border" data-name="white hexagon border" class="cls-1" d="m175.42,52.56L101.48,10.41c-1.53-.88-3.42-.88-4.95,0L22.58,52.56c-1.56.89-2.52,2.55-2.52,4.34v84.19c0,1.8.96,3.45,2.52,4.34l73.94,42.15c1.53.88,3.42.88,4.95,0l73.94-42.15c1.56-.89,2.52-2.55,2.52-4.34V56.91c0-1.8-.96-3.45-2.52-4.34Zm-5.37,84.03c0,1.8-.96,3.45-2.52,4.34l-66.05,37.65c-1.53.88-3.42.88-4.95,0l-66.05-37.65c-1.56-.89-2.52-2.55-2.52-4.34V61.41c0-1.8.96-3.45,2.52-4.34L96.52,19.41c1.53-.88,3.42-.88,4.95,0l66.05,37.65c1.56.89,2.52,2.55,2.52,4.34v75.19Z"/>
      </g>
    </g>
    <path id="sticker_clip_path-2" data-name="sticker clip path" class="cls-4" d="m177.94,141.09c0,1.8-.96,3.45-2.52,4.34l-73.94,42.15c-1.53.88-3.42.88-4.95,0l-73.94-42.15c-1.56-.89-2.52-2.55-2.52-4.34V56.91c0-1.8.96-3.45,2.52-4.34L96.52,10.41c1.53-.88,3.42-.88,4.95,0l73.94,42.15c1.56.89,2.52,2.55,2.52,4.34v84.19Z"/>
  </g>
  <polygon id="cut_line" data-name="cut line" class="cls-5" points="20.06 54 20.06 144 99 189 177.94 144 177.94 54 99 9 20.06 54"/>
</svg>