<?xml version="1.0" encoding="UTF-8"?><svg id="hexagon_sticker" xmlns="http://www.w3.org/2000/svg" xmlns:xlink="http://www.w3.org/1999/xlink" viewBox="0 0 198 198"><defs><clipPath id="clippath"><path id="sticker_clip_path" d="M177.94,141.09c0,1.8-.96,3.45-2.52,4.34l-73.94,42.15c-1.53,.88-3.42,.88-4.95,0L22.58,145.44c-1.56-.89-2.52-2.55-2.52-4.34V56.91c0-1.8,.96-3.45,2.52-4.34L96.52,10.41c1.53-.88,3.42-.88,4.95,0l73.94,42.15c1.56,.89,2.52,2.55,2.52,4.34v84.19Z" style="fill:none; stroke:#fff; stroke-miterlimit:10;"/></clipPath></defs><g id="hexagon_clip_group"><g style="clip-path:url(#clippath);"><g id="two-spirit_pride_flag"><g id="stripes"><rect id="violet_stripe" x="-31" y="139" width="260" height="50" style="fill:#542e8e;"/><rect id="indigo_stripe" x="-31" y="112.33" width="260" height="40" style="fill:#263287;"/><rect id="green_stripe" x="-31" y="85.67" width="260" height="40" style="fill:#00853e;"/><rect id="yellow_stripe" x="-31" y="59" width="260" height="40" style="fill:#fff21f;"/><rect id="orange_stripe" x="-31" y="27.33" width="260" height="45" style="fill:#f58021;"/><rect id="red_stripe" x="-31" y="9" width="260" height="36.67" style="fill:#d92632;"/></g><g id="two_feathers"><path id="shape_outline" d="M61.74,152.67c-2.42-8.32-2.33-16.78-1.47-25.29,.05-.49,.06-.97,.09-1.46,.65-3.26,1.06-6.59,2.01-9.75,1.64-5.43,3.62-10.76,5.46-16.13,.1-.29,.2-.58,.3-.88,2.02-3.75,3.8-7.65,6.1-11.21,3.13-4.83,6.66-9.41,10.12-14.24l-1.22-1.39c-2.53-3.64-4.05-7.61-4.03-12.09,.02-5.37,1.88-10.01,5.55-13.92,.21-.23,.4-.47,.6-.71,2.86-2.51,6.06-4.39,9.83-5.1,6.36-1.19,12.09,.2,17.11,4.35,.31,.25,.62,.5,.93,.75,3.12,3.27,5.26,7.03,5.91,11.57,.76,5.27-.4,10.08-3.39,14.47-.15,.22-.27,.46-.41,.68-.41,.46-.83,.92-1.24,1.38-.08,.1-.13,.23,.12,.14,3.36,4.69,6.88,9.26,10.01,14.09,2.3,3.56,4.09,7.46,6.1,11.21,1.67,4.68,3.55,9.29,4.96,14.05,1.15,3.9,1.74,7.96,2.59,11.95,.05,.26,.15,.51,.23,.76,.19,4.35,.52,8.71,.54,13.06,.02,4.64-.5,9.24-1.92,13.69-.53,.92-1,1.89-1.6,2.76-2.01,2.9-4.86,3.6-7.9,1.79-1.4-.83-2.59-2-3.85-3.06-.54-.45-1.01-1-1.52-1.5-1.79-2.6-3.86-5.06-5.31-7.83-3.25-6.22-6.2-12.6-9.28-18.92-2.74-8.04-5.47-16.09-7.99-23.48-2.53,7.43-5.26,15.46-7.99,23.48-3.95,9.42-8.21,18.67-14.59,26.76-1.59,1.42-3.12,2.91-4.79,4.22-1.24,.97-2.74,1.43-4.38,1.26-2.18-.23-3.45-1.69-4.54-3.37-.43-.67-.77-1.39-1.15-2.1Zm39.21-87.17l-.36,.02,.2,.15c.23,.48,.43,.97,.68,1.44,7.19,13.37,13.92,26.97,19,41.31,1.26,3.55,2.35,7.16,3.54,10.78l-1.6,.57c-4.75-16.75-12.06-32.34-20.18-47.58-.01,1.34,.12,2.66,.16,3.97,.2,6.96-.87,13.78-2.24,20.56-.14,.68-.25,1.44-.1,2.1,1.84,8.21,4.64,16.06,8.77,23.42,1.1,1.96,2.76,2.8,4.88,2.53,3.02-.38,5.83-1.33,7.73-3.95,.25-.35,.39-.78,.58-1.17l.79,.36c1.37,7.2,2.74,14.39,4.13,21.66l1.22-.18c-.64-7.56-2.21-14.89-4.17-22.19,1.89,0,3.62,.04,5.36-.01,1.1-.03,2.22-.1,3.3-.32,.91-.18,1.24-.81,1.04-1.81-2.93-14.54-8.87-27.67-18.4-39.11-4.11-4.93-8.76-9.27-14.33-12.53Zm-3.51-.06c-.78,.5-1.6,.95-2.33,1.51-1.71,1.29-3.48,2.52-5.05,3.95-13.79,12.55-21.67,28.35-25.39,46.43-.19,.91,.25,1.45,1,1.6,1.12,.22,2.28,.3,3.43,.34,1.72,.05,3.45,.01,5.31,.01-2,7.33-3.54,14.66-4.18,22.18,.37,.07,.59,.13,.81,.14,.25,.01,.5-.02,.76-.04,.75-7.37,2.1-14.53,4.15-21.62,.25,.15,.34,.18,.4,.24,.16,.15,.33,.3,.46,.49,1.83,2.61,4.58,3.58,7.54,4.08,2.35,.39,4.07-.49,5.23-2.58,.73-1.32,1.45-2.66,2.11-4.02,4.11-8.34,6.51-17.21,8.03-26.34,1.01-6.08,1.81-12.19,1.05-18.37-.28-2.28-.91-4.51-1.37-6.77l-.46,.06c-9.16,17.01-17.65,34.31-22.98,53.06l-1.5-.57c5.36-18.93,13.97-36.37,22.99-53.77Zm15.13,7.28c5.94-5.62,7.65-17.37-.15-25.43-7.24-7.49-19.4-7.45-26.58,.1-7.66,8.05-5.99,19.69-.22,25.19,3.98-3.07,7.94-6.13,11.97-9.24-1.3-2.35-2.71-4.9-4.15-7.52l1.42-.71c1.45,2.6,2.85,5.09,4.32,7.74,1.51-2.71,2.92-5.22,4.36-7.8l1.36,.82-4.24,7.67c2.16,1.49,4.27,2.83,6.24,4.35,1.96,1.52,3.79,3.22,5.67,4.84Z" style="fill:#1d1d1d;"/><path id="left_feather_background" d="M97.45,65.43c-9.03,17.39-17.63,34.84-22.99,53.77l1.5,.57c5.32-18.74,13.82-36.04,22.98-53.06l.46-.06c.47,2.26,1.1,4.49,1.37,6.77,.75,6.17-.04,12.29-1.05,18.37-1.52,9.13-3.91,18-8.03,26.34-.67,1.36-1.38,2.69-2.11,4.02-1.16,2.09-2.88,2.97-5.23,2.58-2.96-.5-5.7-1.47-7.54-4.08-.13-.18-.3-.33-.46-.49-.06-.06-.15-.09-.4-.24-2.05,7.09-3.4,14.25-4.15,21.62-.26,.02-.51,.05-.76,.04-.22-.01-.43-.07-.81-.14,.64-7.53,2.18-14.86,4.18-22.18-1.86,0-3.59,.04-5.31-.01-1.15-.04-2.31-.12-3.43-.34-.75-.15-1.19-.69-1-1.6,3.71-18.08,11.6-33.87,25.39-46.43,1.58-1.44,3.34-2.67,5.05-3.95,.74-.56,1.55-1.01,2.33-1.51Z" style="fill:#fbfcfc;"/><path id="right_feather_background" d="M100.96,65.49c5.57,3.27,10.22,7.6,14.33,12.53,9.52,11.43,15.46,24.56,18.4,39.11,.2,1-.13,1.63-1.04,1.81-1.08,.22-2.2,.29-3.3,.32-1.73,.05-3.47,.01-5.36,.01,1.96,7.29,3.53,14.62,4.17,22.19l-1.22,.18c-1.38-7.27-2.75-14.46-4.13-21.66l-.79-.36c-.19,.39-.32,.83-.58,1.17-1.9,2.63-4.71,3.58-7.73,3.95-2.12,.26-3.78-.57-4.88-2.53-4.13-7.36-6.93-15.21-8.77-23.42-.15-.66-.04-1.42,.1-2.1,1.38-6.79,2.45-13.61,2.24-20.56-.04-1.32-.17-2.63-.16-3.97,8.12,15.25,15.43,30.83,20.18,47.58l1.6-.57c-1.18-3.62-2.28-7.23-3.54-10.78-5.08-14.34-11.8-27.94-19-41.31-.25-.47-.46-.96-.68-1.44,.06-.05,.11-.1,.16-.16Z" style="fill:#fbfcfc;"/><path id="circle_background" d="M112.58,72.71c-1.88-1.62-3.7-3.33-5.67-4.84-1.97-1.52-4.08-2.85-6.24-4.35l4.24-7.67-1.36-.82c-1.44,2.58-2.85,5.09-4.36,7.8-1.48-2.64-2.87-5.14-4.32-7.74l-1.42,.71c1.45,2.62,2.86,5.18,4.15,7.52-4.03,3.11-7.99,6.16-11.97,9.24-5.77-5.5-7.44-17.14,.22-25.19,7.18-7.55,19.34-7.59,26.58-.1,7.8,8.07,6.09,19.81,.15,25.43Zm-26.38-16.5h-.55c-.3,3.08-.59,6.18-.89,9.28l.64,.06c.27-3.11,.53-6.22,.8-9.33Zm27.1-3.38c.91,2.5,1.81,4.99,2.71,7.47,.35-2.93-.89-5.31-2.71-7.47Zm-18.41-6.84c1.98,1.4,3.78,.97,5.59,.48l-5.59-.48Zm-1.53,18.95l-.57-4.46c-.36,1.57-.79,3.16,.57,4.46Zm1.85-16.54l.05-.44-3.27-.91-.15,.67,3.37,.69Z" style="fill:#fbfcfc;"/><g id="circle_marks"><path d="M86.2,56.21c-.27,3.11-.53,6.22-.8,9.33l-.64-.06c.3-3.1,.59-6.19,.89-9.29h.55Z" style="fill:#1d1d1d;"/><path d="M113.3,52.83c1.81,2.16,3.06,4.54,2.71,7.47-.9-2.48-1.8-4.97-2.71-7.47Z" style="fill:#1d1d1d;"/><path d="M94.9,45.99l5.59,.48c-1.81,.49-3.61,.92-5.59-.48Z" style="fill:#1d1d1d;"/><path d="M93.36,64.93c-1.36-1.31-.94-2.89-.57-4.46l.57,4.46Z" style="fill:#1d1d1d;"/><path d="M95.21,48.39l-3.37-.69,.15-.67,3.27,.91-.05,.44Z" style="fill:#1d1d1d;"/></g></g></g><g id="border"><path id="inner_hexagon_outline" d="M27.95,61.41v75.19c0,1.8,.96,3.45,2.52,4.34l66.05,37.65c1.53,.87,3.42,.87,4.95,0l66.05-37.65c1.56-.89,2.52-2.55,2.52-4.34V61.41c0-1.8-.96-3.45-2.52-4.34L101.48,19.41c-1.53-.87-3.42-.87-4.95,0L30.48,57.06c-1.56,.89-2.52,2.55-2.52,4.34Z" style="fill:none; stroke:#b1b1b1; stroke-miterlimit:10; stroke-width:.25px;"/><path id="white_hexagon_border" d="M175.42,52.56L101.48,10.41c-1.53-.88-3.42-.88-4.95,0L22.58,52.56c-1.56,.89-2.52,2.55-2.52,4.34v84.19c0,1.8,.96,3.45,2.52,4.34l73.94,42.15c1.53,.88,3.42,.88,4.95,0l73.94-42.15c1.56-.89,2.52-2.55,2.52-4.34V56.91c0-1.8-.96-3.45-2.52-4.34Zm-5.37,84.03c0,1.8-.96,3.45-2.52,4.34l-66.05,37.65c-1.53,.88-3.42,.88-4.95,0L30.48,140.94c-1.56-.89-2.52-2.55-2.52-4.34V61.41c0-1.8,.96-3.45,2.52-4.34L96.52,19.41c1.53-.88,3.42-.88,4.95,0l66.05,37.65c1.56,.89,2.52,2.55,2.52,4.34v75.19Z" style="fill:#fff;"/></g></g><path id="sticker_clip_path-2" d="M177.94,141.09c0,1.8-.96,3.45-2.52,4.34l-73.94,42.15c-1.53,.88-3.42,.88-4.95,0L22.58,145.44c-1.56-.89-2.52-2.55-2.52-4.34V56.91c0-1.8,.96-3.45,2.52-4.34L96.52,10.41c1.53-.88,3.42-.88,4.95,0l73.94,42.15c1.56,.89,2.52,2.55,2.52,4.34v84.19Z" style="fill:none; stroke:#fff; stroke-miterlimit:10;"/></g></svg>