<?xml version="1.0" encoding="UTF-8"?><svg id="hexagon_sticker" xmlns="http://www.w3.org/2000/svg" xmlns:xlink="http://www.w3.org/1999/xlink" viewBox="0 0 198 198"><defs><clipPath id="clippath"><path id="sticker_clip_path" d="M177.94,141.09c0,1.8-.96,3.45-2.52,4.34l-73.94,42.15c-1.53,.88-3.42,.88-4.95,0L22.58,145.44c-1.56-.89-2.52-2.55-2.52-4.34V56.91c0-1.8,.96-3.45,2.52-4.34L96.52,10.41c1.53-.88,3.42-.88,4.95,0l73.94,42.15c1.56,.89,2.52,2.55,2.52,4.34v84.19Z" style="fill:none; stroke:#fff; stroke-miterlimit:10;"/></clipPath></defs><g id="hexagon_clip_group"><g style="clip-path:url(#clippath);"><g id="pony_flag"><rect id="background" x="-31" y="9" width="260" height="180" style="fill:#231f20;"/><g id="stripes"><rect id="white_stripe" x="-31" y="80.48" width="260" height="37.04" style="fill:#fff;"/><rect id="blue_stripe" x="-31" y="89.61" width="260" height="18.67" style="fill:#005f9e;"/></g><g id="circle___shoes"><g id="circles"><circle id="white_circle" cx="99" cy="99" r="46.18" style="fill:#fff;"/><circle id="green_circle" cx="99" cy="99" r="43.37" style="fill:#006b35;"/></g><g id="horse_shoes"><g id="back_shoe"><path id="shoe_shape" d="M110.53,93.39c-.09,6.75-1.27,12.24-4.29,17.23-2.47,4.07-5.78,7.18-10.35,8.72-4.4,1.49-8.68,.99-12.8-1.05-3.97-1.96-7.01-4.98-9.41-8.66-.97-1.48-1.95-2.99-2.63-4.62-1.3-3.1-2.22-6.35-2.65-9.7-.68-5.28-.38-10.48,1.31-15.56,.17-.5,.37-.99,.52-1.49,.15-.53,.3-1.07,.36-1.61,.2-1.84,1.44-3.13,3.23-3.3,1.63-.16,3.12,.85,3.64,2.43,.12,.37,.13,.67-.09,1.02-2.71,4.43-3.6,9.31-3.45,14.42,.12,4.07,.96,8.02,2.7,11.69,1.78,3.76,4.13,7.12,7.78,9.37,5.25,3.24,11.27,2.26,15.24-2.49,2.27-2.72,3.67-5.87,4.35-9.31,1.51-7.62,.39-14.83-3.48-21.59-.94-1.64-2.08-3.14-3.47-4.42-.56-.51-.72-1.02-.54-1.75,.4-1.64,1.69-2.76,3.36-2.84,1.49-.07,2.91,.98,3.43,2.49,.16,.46,.38,.91,.67,1.3,3.21,4.4,5.17,9.31,6.01,14.68,.31,1.99,.44,4,.54,5.04Z" style="fill:#fcfdfc;"/><g id="holes"><g id="left_holes"><path id="left_hole_4" d="M78.61,110.47c-.13,.18-.26,.51-.48,.61-.26,.11-.73,.14-.89-.02-.66-.68-1.26-1.41-1.82-2.17-.25-.33-.07-.7,.22-.96,.3-.27,.72-.36,.98-.08,.67,.71,1.27,1.49,1.89,2.25,.06,.07,.05,.19,.1,.38Z" style="fill:#231f20;"/><path id="left_hole_3" d="M75.3,104.57c-.31,.32-.51,.63-.78,.77-.34,.17-.76,.05-.94-.31-.4-.79-.77-1.59-1.11-2.41-.15-.37-.03-.79,.34-.92,.29-.11,.86-.12,.96,.04,.55,.87,1,1.81,1.53,2.83Z" style="fill:#231f20;"/><path id="left_hole_2" d="M72.88,97.69c.02,.59-.19,.94-.66,1.07-.49,.13-.88-.09-1-.55-.23-.82-.41-1.65-.54-2.49-.08-.47,.18-.83,.68-.92,.49-.09,.85,.13,.98,.61,.21,.79,.39,1.59,.55,2.29Z" style="fill:#231f20;"/><path id="left_hole_1" d="M71.72,89.42c0,.36,.02,.73,0,1.08-.05,.63-.39,.97-.9,.96-.48-.01-.84-.34-.85-.9,0-.82,.04-1.64,.13-2.46,.05-.47,.48-.78,.9-.72,.42,.06,.74,.3,.77,.76,.03,.43,0,.85,0,1.28h-.05Z" style="fill:#231f20;"/></g><g id="right_holes"><path id="right_hole_4" d="M106.69,105.19c-.07,.29-.08,.43-.13,.54-.31,.69-.6,1.39-.95,2.06-.27,.52-.8,.69-1.24,.45-.41-.21-.56-.66-.34-1.19,.3-.73,.64-1.44,1-2.15,.21-.41,.63-.54,1.01-.36,.28,.13,.47,.45,.65,.63Z" style="fill:#231f20;"/><path id="right_hole_3" d="M106.26,100.41c.13-.74,.25-1.56,.44-2.35,.11-.46,.48-.72,.97-.64,.49,.08,.77,.43,.72,.91-.1,.85-.24,1.7-.44,2.52-.11,.44-.49,.69-1,.58-.44-.09-.68-.43-.69-1.02Z" style="fill:#231f20;"/><path id="right_hole_2" d="M108.58,92.83c0,.21,.02,.38,0,.54-.08,.46-.47,.81-.88,.78-.44-.04-.77-.29-.83-.72-.11-.81-.18-1.64-.19-2.46,0-.56,.36-.9,.84-.92,.47-.02,.83,.3,.9,.85,.08,.65,.12,1.31,.17,1.93Z" style="fill:#231f20;"/><path id="right_hole_1" d="M105.93,82.69c.14,.1,.49,.24,.61,.49,.37,.73,.66,1.5,.95,2.27,.18,.48,0,.85-.45,1.06-.45,.21-.88,.08-1.09-.35-.37-.77-.71-1.56-.99-2.36-.19-.55,.24-1.08,.97-1.1Z" style="fill:#231f20;"/></g></g></g><g id="front_shoe"><path id="shoe_shape-2" d="M128.56,104.76c-.09,6.75-1.27,12.24-4.29,17.23-2.47,4.07-5.78,7.18-10.35,8.72-4.4,1.49-8.68,.99-12.8-1.05-3.97-1.96-7.01-4.98-9.41-8.66-.97-1.48-1.95-2.99-2.63-4.62-1.3-3.1-2.22-6.35-2.65-9.7-.68-5.28-.38-10.48,1.31-15.56,.17-.5,.37-.99,.52-1.49,.15-.53,.3-1.07,.36-1.61,.2-1.84,1.44-3.13,3.23-3.3,1.63-.16,3.12,.85,3.64,2.43,.12,.37,.13,.67-.09,1.02-2.71,4.43-3.6,9.31-3.45,14.42,.12,4.07,.96,8.02,2.7,11.69,1.78,3.76,4.13,7.12,7.78,9.37,5.25,3.24,11.27,2.26,15.24-2.49,2.27-2.72,3.67-5.87,4.35-9.31,1.51-7.62,.39-14.83-3.48-21.59-.94-1.64-2.08-3.14-3.47-4.42-.56-.51-.72-1.02-.54-1.75,.4-1.64,1.69-2.76,3.36-2.84,1.49-.07,2.91,.98,3.43,2.49,.16,.46,.38,.91,.67,1.3,3.21,4.4,5.17,9.31,6.01,14.68,.31,1.99,.44,4,.54,5.04Z" style="fill:#fcfdfc;"/><g id="holes-2"><g id="left_holes-2"><path id="left_hole_4-2" d="M96.64,121.84c-.13,.18-.26,.51-.48,.61-.26,.11-.73,.14-.89-.02-.66-.68-1.26-1.41-1.82-2.17-.25-.33-.07-.7,.22-.96,.3-.27,.72-.36,.98-.08,.67,.71,1.27,1.49,1.89,2.25,.06,.07,.05,.19,.1,.38Z" style="fill:#231f20;"/><path id="left_hole_3-2" d="M93.33,115.95c-.31,.32-.51,.63-.78,.77-.34,.17-.76,.05-.94-.31-.4-.79-.77-1.59-1.11-2.41-.15-.37-.03-.79,.34-.92,.29-.11,.86-.12,.96,.04,.55,.87,1,1.81,1.53,2.83Z" style="fill:#231f20;"/><path id="left_hole_2-2" d="M90.91,109.06c.02,.59-.19,.94-.66,1.07-.49,.13-.88-.09-1-.55-.23-.82-.41-1.65-.54-2.49-.08-.47,.18-.83,.68-.92,.49-.09,.85,.13,.98,.61,.21,.79,.39,1.59,.55,2.29Z" style="fill:#231f20;"/><path id="left_hole_1-2" d="M89.75,100.79c0,.36,.02,.73,0,1.08-.05,.63-.39,.97-.9,.96-.48-.01-.84-.34-.85-.9,0-.82,.04-1.64,.13-2.46,.05-.47,.48-.78,.9-.72,.42,.06,.74,.3,.77,.76,.03,.43,0,.85,0,1.28h-.05Z" style="fill:#231f20;"/></g><g id="right_holes-2"><path id="right_hole_4-2" d="M124.72,116.56c-.07,.29-.08,.43-.13,.54-.31,.69-.6,1.39-.95,2.06-.27,.52-.8,.69-1.24,.45-.41-.21-.56-.66-.34-1.19,.3-.73,.64-1.44,1-2.15,.21-.41,.63-.54,1.01-.36,.28,.13,.47,.45,.65,.63Z" style="fill:#231f20;"/><path id="right_hole_3-2" d="M124.29,111.79c.13-.74,.25-1.56,.44-2.35,.11-.46,.48-.72,.97-.64,.49,.08,.77,.43,.72,.91-.1,.85-.24,1.7-.44,2.52-.11,.44-.49,.69-1,.58-.44-.09-.68-.43-.69-1.02Z" style="fill:#231f20;"/><path id="right_hole_2-2" d="M126.61,104.21c0,.21,.02,.38,0,.54-.08,.46-.47,.81-.88,.78-.44-.04-.77-.29-.83-.72-.11-.81-.18-1.64-.19-2.46,0-.56,.36-.9,.84-.92,.47-.02,.83,.3,.9,.85,.08,.65,.12,1.31,.17,1.93Z" style="fill:#231f20;"/><path id="right_hole_1-2" d="M123.96,94.07c.14,.1,.49,.24,.61,.49,.37,.73,.66,1.5,.95,2.27,.18,.48,0,.85-.45,1.06-.45,.21-.88,.08-1.09-.35-.37-.77-.71-1.56-.99-2.36-.19-.55,.24-1.08,.97-1.1Z" style="fill:#231f20;"/></g></g></g></g></g></g><g id="border"><path id="inner_hexagon_outline" d="M27.95,61.41v75.19c0,1.8,.96,3.45,2.52,4.34l66.05,37.65c1.53,.87,3.42,.87,4.95,0l66.05-37.65c1.56-.89,2.52-2.55,2.52-4.34V61.41c0-1.8-.96-3.45-2.52-4.34L101.48,19.41c-1.53-.87-3.42-.87-4.95,0L30.48,57.06c-1.56,.89-2.52,2.55-2.52,4.34Z" style="fill:none; stroke:#b1b1b1; stroke-miterlimit:10; stroke-width:.25px;"/><path id="white_hexagon_border" d="M175.42,52.56L101.48,10.41c-1.53-.88-3.42-.88-4.95,0L22.58,52.56c-1.56,.89-2.52,2.55-2.52,4.34v84.19c0,1.8,.96,3.45,2.52,4.34l73.94,42.15c1.53,.88,3.42,.88,4.95,0l73.94-42.15c1.56-.89,2.52-2.55,2.52-4.34V56.91c0-1.8-.96-3.45-2.52-4.34Zm-5.37,84.03c0,1.8-.96,3.45-2.52,4.34l-66.05,37.65c-1.53,.88-3.42,.88-4.95,0L30.48,140.94c-1.56-.89-2.52-2.55-2.52-4.34V61.41c0-1.8,.96-3.45,2.52-4.34L96.52,19.41c1.53-.88,3.42-.88,4.95,0l66.05,37.65c1.56,.89,2.52,2.55,2.52,4.34v75.19Z" style="fill:#fff;"/></g></g><path id="sticker_clip_path-2" d="M177.94,141.09c0,1.8-.96,3.45-2.52,4.34l-73.94,42.15c-1.53,.88-3.42,.88-4.95,0L22.58,145.44c-1.56-.89-2.52-2.55-2.52-4.34V56.91c0-1.8,.96-3.45,2.52-4.34L96.52,10.41c1.53-.88,3.42-.88,4.95,0l73.94,42.15c1.56,.89,2.52,2.55,2.52,4.34v84.19Z" style="fill:none; stroke:#fff; stroke-miterlimit:10;"/></g></svg>