<?xml version="1.0" encoding="UTF-8"?><svg id="hexagon_sticker" xmlns="http://www.w3.org/2000/svg" xmlns:xlink="http://www.w3.org/1999/xlink" viewBox="0 0 198 198"><defs><clipPath id="clippath"><path id="sticker_clip_path" d="M177.94,141.09c0,1.8-.96,3.45-2.52,4.34l-73.94,42.15c-1.53,.88-3.42,.88-4.95,0L22.58,145.44c-1.56-.89-2.52-2.55-2.52-4.34V56.91c0-1.8,.96-3.45,2.52-4.34L96.52,10.41c1.53-.88,3.42-.88,4.95,0l73.94,42.15c1.56,.89,2.52,2.55,2.52,4.34v84.19Z" style="fill:none; stroke:#fff; stroke-miterlimit:10;"/></clipPath></defs><g id="hexagon_clip_group"><g style="clip-path:url(#clippath);"><g id="pansexual_flag"><rect id="blue_stripe" x="-31" y="99" width="260" height="90" style="fill:#15bef0;"/><rect id="yellow_stripe" x="-31" y="40.67" width="260" height="84.99" style="fill:#ffef00;"/><rect id="pink_stripe" x="-31" y="9" width="260" height="63.34" style="fill:#e44398;"/></g><g id="border"><path id="inner_hexagon_outline" d="M27.95,61.41v75.19c0,1.8,.96,3.45,2.52,4.34l66.05,37.65c1.53,.87,3.42,.87,4.95,0l66.05-37.65c1.56-.89,2.52-2.55,2.52-4.34V61.41c0-1.8-.96-3.45-2.52-4.34L101.48,19.41c-1.53-.87-3.42-.87-4.95,0L30.48,57.06c-1.56,.89-2.52,2.55-2.52,4.34Z" style="fill:none; stroke:#b1b1b1; stroke-miterlimit:10; stroke-width:.25px;"/><path id="white_hexagon_border" d="M175.42,52.56L101.48,10.41c-1.53-.88-3.42-.88-4.95,0L22.58,52.56c-1.56,.89-2.52,2.55-2.52,4.34v84.19c0,1.8,.96,3.45,2.52,4.34l73.94,42.15c1.53,.88,3.42,.88,4.95,0l73.94-42.15c1.56-.89,2.52-2.55,2.52-4.34V56.91c0-1.8-.96-3.45-2.52-4.34Zm-5.37,84.03c0,1.8-.96,3.45-2.52,4.34l-66.05,37.65c-1.53,.88-3.42,.88-4.95,0L30.48,140.94c-1.56-.89-2.52-2.55-2.52-4.34V61.41c0-1.8,.96-3.45,2.52-4.34L96.52,19.41c1.53-.88,3.42-.88,4.95,0l66.05,37.65c1.56,.89,2.52,2.55,2.52,4.34v75.19Z" style="fill:#fff;"/></g></g><path id="sticker_clip_path-2" d="M177.94,141.09c0,1.8-.96,3.45-2.52,4.34l-73.94,42.15c-1.53,.88-3.42,.88-4.95,0L22.58,145.44c-1.56-.89-2.52-2.55-2.52-4.34V56.91c0-1.8,.96-3.45,2.52-4.34L96.52,10.41c1.53-.88,3.42-.88,4.95,0l73.94,42.15c1.56,.89,2.52,2.55,2.52,4.34v84.19Z" style="fill:none; stroke:#fff; stroke-miterlimit:10;"/></g></svg>