<?xml version="1.0" encoding="UTF-8"?><svg id="hexagon_sticker" xmlns="http://www.w3.org/2000/svg" xmlns:xlink="http://www.w3.org/1999/xlink" viewBox="0 0 198 198"><defs><clipPath id="clippath"><path id="sticker_clip_path" d="M177.94,141.09c0,1.8-.96,3.45-2.52,4.34l-73.94,42.15c-1.53,.88-3.42,.88-4.95,0L22.58,145.44c-1.56-.89-2.52-2.55-2.52-4.34V56.91c0-1.8,.96-3.45,2.52-4.34L96.52,10.41c1.53-.88,3.42-.88,4.95,0l73.94,42.15c1.56,.89,2.52,2.55,2.52,4.34v84.19Z" style="fill:none; stroke:#fff; stroke-miterlimit:10;"/></clipPath></defs><g id="hexagon_clip_group"><g style="clip-path:url(#clippath);"><g id="leather_flag"><g id="stripes"><rect id="black_stripe_4" x="-31" y="152.32" width="260" height="36.68" style="fill:#231f20;"/><rect id="blue_stripe_4" x="-31" y="134.54" width="260" height="26.66" style="fill:#262a82;"/><rect id="black_stripe_3" x="-31" y="116.77" width="260" height="26.66" style="fill:#231f20;"/><rect id="blue_stripe__3" x="-31" y="99" width="260" height="26.66" style="fill:#262a82;"/><rect id="white_stripe" x="-31" y="81.22" width="260" height="26.66" style="fill:#fff;"/><rect id="blue_stripe_2" x="-31" y="63.44" width="260" height="26.66" style="fill:#262a82;"/><rect id="black_stripe_2" x="-31" y="45.66" width="260" height="26.66" style="fill:#231f20;"/><rect id="blue_stripe_1" x="-31" y="22.89" width="260" height="31.66" style="fill:#262a82;"/><rect id="black_stripe_1" x="-31" y="9" width="260" height="27.78" style="fill:#231f20;"/></g><path id="heart" d="M63.41,117c-1.52-2.79-3.25-5.49-4.51-8.39-1.59-3.64-1.38-7.5-.45-11.32,1.79-4.61,4.47-8.59,8.57-11.44,6.58-4.57,13.69-4.61,21.04-2.29,.51,.16,1.02,.33,1.53,.49,.41-2.46,.8-4.8,1.19-7.14,1.42-2.78,2.49-5.81,4.31-8.29,6.81-9.25,18.64-11.13,28.97-4.86,5.17,3.14,9.34,7.14,11.13,13.15,1.75,6.07,2.11,12.29,1.96,18.57-.01,.59,.03,1.19,.05,1.78-.27,2.71-.47,5.43-.81,8.13-.48,3.88-1.06,7.75-1.6,11.63-.9,4.04-1.78,8.07-2.69,12.11-.53,2.31-.56,2.25-2.98,2.3-8.28,.17-16.56,.48-24.85,.56-6.6,.07-13.16-.57-19.59-2.15-8.41-2.07-15.7-6.02-21.25-12.84Z" style="fill:#ef373e;"/></g><g id="border"><path id="inner_hexagon_outline" d="M27.95,61.41v75.19c0,1.8,.96,3.45,2.52,4.34l66.05,37.65c1.53,.87,3.42,.87,4.95,0l66.05-37.65c1.56-.89,2.52-2.55,2.52-4.34V61.41c0-1.8-.96-3.45-2.52-4.34L101.48,19.41c-1.53-.87-3.42-.87-4.95,0L30.48,57.06c-1.56,.89-2.52,2.55-2.52,4.34Z" style="fill:none; stroke:#b1b1b1; stroke-miterlimit:10; stroke-width:.25px;"/><path id="white_hexagon_border" d="M175.42,52.56L101.48,10.41c-1.53-.88-3.42-.88-4.95,0L22.58,52.56c-1.56,.89-2.52,2.55-2.52,4.34v84.19c0,1.8,.96,3.45,2.52,4.34l73.94,42.15c1.53,.88,3.42,.88,4.95,0l73.94-42.15c1.56-.89,2.52-2.55,2.52-4.34V56.91c0-1.8-.96-3.45-2.52-4.34Zm-5.37,84.03c0,1.8-.96,3.45-2.52,4.34l-66.05,37.65c-1.53,.88-3.42,.88-4.95,0L30.48,140.94c-1.56-.89-2.52-2.55-2.52-4.34V61.41c0-1.8,.96-3.45,2.52-4.34L96.52,19.41c1.53-.88,3.42-.88,4.95,0l66.05,37.65c1.56,.89,2.52,2.55,2.52,4.34v75.19Z" style="fill:#fff;"/></g></g><path id="sticker_clip_path-2" d="M177.94,141.09c0,1.8-.96,3.45-2.52,4.34l-73.94,42.15c-1.53,.88-3.42,.88-4.95,0L22.58,145.44c-1.56-.89-2.52-2.55-2.52-4.34V56.91c0-1.8,.96-3.45,2.52-4.34L96.52,10.41c1.53-.88,3.42-.88,4.95,0l73.94,42.15c1.56,.89,2.52,2.55,2.52,4.34v84.19Z" style="fill:none; stroke:#fff; stroke-miterlimit:10;"/></g></svg>